<svg width="0" height="0" style="position:absolute">
  <!-- Collection of icons that could be used for extensions -->
  <symbol id="icon-dev" viewBox="0 0 24 24">
    <path d="M8,3A2,2 0 0,0 6,5V9A2,2 0 0,1 4,11H3V13H4A2,2 0 0,1 6,15V19A2,2 0 0,0 8,21H10V19H8V14A2,2 0 0,0 6,12A2,2 0 0,0 8,10V5H10V3M16,3A2,2 0 0,1 18,5V9A2,2 0 0,0 20,11H21V13H20A2,2 0 0,0 18,15V19A2,2 0 0,1 16,21H14V19H16V14A2,2 0 0,1 18,12A2,2 0 0,1 16,10V5H14V3H16Z" />
  </symbol>
  <symbol id="icon-style" viewBox="0 0 24 24">
    <path d="M20.71,4.63L19.37,3.29C19,2.9 18.35,2.9 17.96,3.29L9,12.25L11.75,15L20.71,6.04C21.1,5.65 21.1,5 20.71,4.63M7,14A3,3 0 0,0 4,17C4,18.31 2.84,19 2,19C2.92,20.22 4.5,21 6,21C8.21,21 10,19.21 10,17C10,15.95 9.5,15 9,14.66L7,14Z" />
  </symbol>
  <symbol id="icon-speed" viewBox="0 0 24 24">
    <path d="M12,16A3,3 0 0,1 9,13C9,11.88 9.61,10.9 10.5,10.39L20.21,4.77L14.68,14.35C14.18,15.33 13.17,16 12,16M12,3C13.81,3 15.5,3.5 16.97,4.32L14.87,5.53C14,5.19 13,5 12,5A8,8 0 0,0 4,13C4,15.21 4.89,17.21 6.34,18.65H6.35C6.74,19.04 6.74,19.67 6.35,20.06C5.96,20.45 5.32,20.45 4.93,20.07V20.07C3.12,18.26 2,15.76 2,13A10,10 0 0,1 12,3M22,13C22,15.76 20.88,18.26 19.07,20.07V20.07C18.68,20.45 18.05,20.45 17.66,20.06C17.27,19.67 17.27,19.04 17.66,18.65V18.65C19.11,17.2 20,15.21 20,13C20,12 19.81,11 19.46,10.1L20.67,8C21.5,9.5 22,11.18 22,13Z" />
  </symbol>
  <symbol id="icon-json" viewBox="0 0 24 24">
    <path d="M5,3H7V5H5V10A2,2 0 0,1 3,12A2,2 0 0,1 5,14V19H7V21H5C3.93,20.73 3,20.1 3,19V15A2,2 0 0,0 1,13H0V11H1A2,2 0 0,0 3,9V5A2,2 0 0,1 5,3M19,3A2,2 0 0,1 21,5V9A2,2 0 0,0 23,11H24V13H23A2,2 0 0,0 21,15V19A2,2 0 0,1 19,21H17V19H19V14A2,2 0 0,1 21,12A2,2 0 0,1 19,10V5H17V3H19M12,15A1,1 0 0,1 13,16A1,1 0 0,1 12,17A1,1 0 0,1 11,16A1,1 0 0,1 12,15M8,15A1,1 0 0,1 9,16A1,1 0 0,1 8,17A1,1 0 0,1 7,16A1,1 0 0,1 8,15M16,15A1,1 0 0,1 17,16A1,1 0 0,1 16,17A1,1 0 0,1 15,16A1,1 0 0,1 16,15Z" />
  </symbol>
  <symbol id="icon-tab" viewBox="0 0 24 24">
    <path d="M3,3H21A2,2 0 0,1 23,5V19A2,2 0 0,1 21,21H3A2,2 0 0,1 1,19V5A2,2 0 0,1 3,3M3,5V19H21V5H3M10,10V8H20V10H10M10,12H20V14H10V12M10,16H20V18H10V16M4,8H8V18H4V8Z" />
  </symbol>
  <symbol id="icon-viewport" viewBox="0 0 24 24">
    <path d="M4,6V16H9V12A2,2 0 0,1 11,10H16A2,2 0 0,1 18,12V16H20V6H4M0,20V18H4A2,2 0 0,1 2,16V6A2,2 0 0,1 4,4H20A2,2 0 0,1 22,6V16A2,2 0 0,1 20,18H24V20H18V20C18,21.11 17.1,22 16,22H11A2,2 0 0,1 9,20H9L0,20M11.5,20A0.5,0.5 0 0,0 11,20.5A0.5,0.5 0 0,0 11.5,21A0.5,0.5 0 0,0 12,20.5A0.5,0.5 0 0,0 11.5,20M13,20V22H14V20H13M15,20V22H16V20H15Z" />
  </symbol>
</svg>
