<svg width="24" height="24" viewBox="0 0 24 24" fill="none" xmlns="http://www.w3.org/2000/svg">
  <path d="M12 2C6.48 2 2 6.48 2 12C2 17.52 6.48 22 12 22C17.52 22 22 17.52 22 12C22 6.48 17.52 2 12 2ZM12 20C7.58 20 4 16.42 4 12C4 7.58 7.58 4 12 4C16.42 4 20 7.58 20 12C20 16.42 16.42 20 12 20Z" fill="#E74C3C"/>
  <path d="M12 6C10.9 6 10 6.9 10 8C10 9.1 10.9 10 12 10C13.1 10 14 9.1 14 8C14 6.9 13.1 6 12 6Z" fill="#E74C3C"/>
  <path d="M12 12C10.9 12 10 12.9 10 14C10 15.1 10.9 16 12 16C13.1 16 14 15.1 14 14C14 12.9 13.1 12 12 12Z" fill="#E74C3C"/>
  <path d="M6 10C7.1 10 8 9.1 8 8C8 6.9 7.1 6 6 6C4.9 6 4 6.9 4 8C4 9.1 4.9 10 6 10Z" fill="#E74C3C"/>
  <path d="M6 16C7.1 16 8 15.1 8 14C8 12.9 7.1 12 6 12C4.9 12 4 12.9 4 14C4 15.1 4.9 16 6 16Z" fill="#E74C3C"/>
  <path d="M18 10C19.1 10 20 9.1 20 8C20 6.9 19.1 6 18 6C16.9 6 16 6.9 16 8C16 9.1 16.9 10 18 10Z" fill="#E74C3C"/>
  <path d="M18 16C19.1 16 20 15.1 20 14C20 12.9 19.1 12 18 12C16.9 12 16 12.9 16 14C16 15.1 16.9 16 18 16Z" fill="#E74C3C"/>
</svg>
